<svg width="74.534668" height="111.534668" viewBox="0 0 74.5347 111.535" fill="none" xmlns="http://www.w3.org/2000/svg" xmlns:xlink="http://www.w3.org/1999/xlink">
	<desc>
			Created with Pixso.
	</desc>
	<defs/>
	<path id="Star 11" d="M13.27 12.47L1.48 15.59L12.47 20.89L15.59 32.68L20.89 21.7L32.68 18.57L21.7 13.27L18.57 1.48L13.27 12.47ZM18.3 4.35L13.97 13.32L4.35 15.87L13.32 20.19L15.87 29.81L20.19 20.85L29.81 18.3L20.85 13.97L18.3 4.35Z" fill="#BCEC30" fill-opacity="1.000000" fill-rule="evenodd"/>
	<path id="Star 12" d="M38.12 73.72L17.59 79.17L36.72 88.4L42.17 108.94L51.4 89.8L71.94 84.35L52.8 75.12L47.35 54.59L38.12 73.72ZM47.08 57.46L38.82 74.57L20.45 79.44L37.57 87.7L42.44 106.07L50.7 88.95L69.07 84.08L51.95 75.82L47.08 57.46Z" fill="#BCEC30" fill-opacity="1.000000" fill-rule="evenodd"/>
</svg>
