<svg width="148.000000" height="113.000000" viewBox="0 0 148 113" fill="none" xmlns="http://www.w3.org/2000/svg" xmlns:xlink="http://www.w3.org/1999/xlink">
	<desc>
			Created with Pixso.
	</desc>
	<defs/>
	<path id="Star 5" d="M18.5 0L13.5 13.5L0 18.5L13.5 23.49L18.5 37L23.49 23.49L37 18.5L23.49 13.5L18.5 0Z" fill="#BCEC30" fill-opacity="1.000000" fill-rule="evenodd"/>
	<path id="Star 5" d="M13.5 13.5L0 18.5L13.5 23.49L18.5 37L23.49 23.49L37 18.5L23.49 13.5L18.5 0L13.5 13.5ZM18.5 2.88L14.28 14.28L2.88 18.5L14.28 22.71L18.5 34.11L22.71 22.71L34.11 18.5L22.71 14.28L18.5 2.88Z" fill="#202027" fill-opacity="1.000000" fill-rule="evenodd"/>
	<path id="Star 4" d="M95.29 60.29L65 71.5L95.29 82.7L106.5 113L117.7 82.7L148 71.5L117.7 60.29L106.5 30L95.29 60.29ZM106.5 32.88L96.06 61.06L67.88 71.5L96.06 81.93L106.5 110.11L116.93 81.93L145.11 71.5L116.93 61.06L106.5 32.88Z" fill="#202027" fill-opacity="1.000000" fill-rule="evenodd"/>
</svg>
