<svg width="118.087402" height="108.087646" viewBox="0 0 118.087 108.088" fill="none" xmlns="http://www.w3.org/2000/svg" xmlns:xlink="http://www.w3.org/1999/xlink">
	<desc>
			Created with Pixso.
	</desc>
	<defs/>
	<path id="Star 6" d="M72.16 60.4L46.26 67.27L70.4 78.91L77.27 104.81L88.91 80.68L114.81 73.81L90.68 62.16L83.81 36.26L72.16 60.4ZM83.53 39.13L72.86 61.25L49.13 67.54L71.25 78.21L77.54 101.95L88.21 79.83L111.95 73.53L89.83 62.87L83.53 39.13Z" fill="#BCEC30" fill-opacity="1.000000" fill-rule="evenodd"/>
	<path id="Star 7" d="M15.48 14.31L2.16 17.43L14.31 23.73L17.43 37.04L23.73 24.9L37.04 21.77L24.9 15.48L21.77 2.16L15.48 14.31ZM21.41 5.02L16.15 15.17L5.02 17.79L15.17 23.05L17.79 34.18L23.05 24.03L34.18 21.41L24.03 16.15L21.41 5.02Z" fill="#BCEC30" fill-opacity="1.000000" fill-rule="evenodd"/>
</svg>
