<svg width="139.000000" height="89.000000" viewBox="0 0 139 89" fill="none" xmlns="http://www.w3.org/2000/svg" xmlns:xlink="http://www.w3.org/1999/xlink">
	<desc>
			Created with Pixso.
	</desc>
	<defs/>
	<path id="Star 8" d="M95.18 25.18L70 34.5L95.18 43.81L104.5 69L113.81 43.81L139 34.5L113.81 25.18L104.5 0L95.18 25.18ZM104.5 2.88L95.96 25.96L72.88 34.5L95.96 43.04L104.5 66.11L113.04 43.04L136.11 34.5L113.04 25.96L104.5 2.88Z" fill="#BCEC30" fill-opacity="1.000000" fill-rule="evenodd"/>
	<path id="Star 10" d="M14.96 62.96L0 68.5L14.96 74.03L20.5 89L26.03 74.03L41 68.5L26.03 62.96L20.5 48L14.96 62.96ZM20.5 50.88L15.74 63.74L2.88 68.5L15.74 73.25L20.5 86.11L25.25 73.25L38.11 68.5L25.25 63.74L20.5 50.88Z" fill="#BCEC30" fill-opacity="1.000000" fill-rule="evenodd"/>
</svg>
