<svg width="458" height="568" viewBox="0 0 458 568" fill="none" xmlns="http://www.w3.org/2000/svg">
<path d="M311.57 185.339L311.784 185.896L312.295 185.587L479.841 84.2779L380.533 253.018L380.231 253.534L380.791 253.741L564.461 321.569L370.617 349.136L370.025 349.22L370.212 349.788L431.698 535.676L289.288 401.311L288.853 400.9L288.526 401.401L181.527 565.371L197.787 370.255L197.837 369.659L197.241 369.716L2.33031 388.294L165.019 279.354L165.515 279.021L165.099 278.591L29.048 137.787L215.656 197.058L216.226 197.239L216.303 196.647L241.56 2.48716L311.57 185.339Z" stroke="#BCEC30"/>
</svg>
